# xmcd CD database file generated by Grip 3.2.0
# 
# Track frame offsets:
#       150
#       11977
#       38728
#       62137
#       86177
#       118317
#       139752
#       153203
#       182672
#       208423
#       236576
#       263804
#       293875
# 
# Disc length: 4254 seconds
# 
# Revision: 4
# Processed by: cddbd v1.5.1PL0 Copyright (c) Steve Scherf et al.
# Submitted via: Gronk 1.7
# 
DISCID=c4109c0d
DTITLE=Manufactura - Precognitive Dissonance
DYEAR=2003
DGENRE=blues
TTITLE0=Can't Rape the Willing
TTITLE1=Dance of Blood
TTITLE2=Stoned to Death
TTITLE3=Deep Waters
TTITLE4=Muerto de Miedo
TTITLE5=Sweet Flesh (feat. Notime and Broken Fabiola)
TTITLE6=The Madness and The Whores
TTITLE7=24 Sleeping Pills and 11 Shots of 151% Proof
TTITLE8=Nightstalker
TTITLE9=Pain Provider
TTITLE10=Navaja el Cerebro
TTITLE11=Die For Me
TTITLE12=Blind Deaf and Mute (Aghast View rmx)
EXTD=Hive Records HIV.08
EXTT0=
EXTT1=
EXTT2=
EXTT3=
EXTT4=
EXTT5=
EXTT6=
EXTT7=
EXTT8=
EXTT9=
EXTT10=
EXTT11=
EXTT12=
PLAYORDER=
